M48
INCH
T01C0.0300
T02C0.0400
%
T01
X-001000Y+005500
X+000000Y+005500
X+001000Y+005500
X+002000Y+005500
X+002000Y+008500
X+001000Y+008500
X+000000Y+008500
X-001000Y+008500
X+000500Y+003000
X+000500Y+001500
X-002000Y+001000
X-002000Y+005000
X-003000Y+001000
X-003000Y+005000
X+003000Y+005000
X+003000Y+001000
X+004000Y+005000
X+004000Y+001000
T02
X+000000Y+004500
X-001000Y+004500
X-004000Y+003500
X-004000Y+004500
M30
