M48
;DRILL file {KiCad 4.0.7} date 10/01/18 16:12:04
;FORMAT={-:-/ absolute / inch / decimal}
FMAT,2
INCH,TZ
T1C0.020
T2C0.028
T3C0.031
%
G90
G05
M72
T1
X5.8Y-4.75
X5.8Y-4.7894
X6.15Y-5.
X6.15Y-5.0394
T2
X5.9Y-5.
X5.9748Y-5.
X6.Y-5.25
X6.05Y-4.8
X6.0748Y-5.25
X6.1248Y-4.8
X6.3Y-4.8
X6.3748Y-4.8
T3
X6.2Y-5.3
X6.3Y-5.3
X6.55Y-4.85
X6.55Y-4.95
X6.55Y-5.05
X6.55Y-5.15
X6.85Y-4.85
X6.85Y-4.95
X6.85Y-5.05
X6.85Y-5.15
T0
M30
